<mxfile host="drawio-plugin" agent="Mozilla/5.0 (Windows NT 10.0; Win64; x64) AppleWebKit/537.36 (KHTML, like Gecko) Chrome/122.0.0.0 Safari/537.36" modified="2025-03-18T22:58:03.667Z" etag="998ZH3KWKlB8XoYg7VO9" version="22.1.22" type="embed">
  <diagram name="Page-1" id="saGQkFF354tpIslPzNc2">
    <mxGraphModel dx="1044" dy="1895" grid="1" gridSize="10" guides="1" tooltips="1" connect="1" arrows="1" fold="1" page="1" pageScale="1" pageWidth="850" pageHeight="1100" math="0" shadow="0">
      <root>
        <mxCell id="0" />
        <mxCell id="1" parent="0" />
        <mxCell id="ifuM4C0vmr6asOCNEHFr-5" value="Teacher" style="swimlane;fontStyle=1;align=center;verticalAlign=top;childLayout=stackLayout;horizontal=1;startSize=26;horizontalStack=0;resizeParent=1;resizeParentMax=0;resizeLast=0;collapsible=1;marginBottom=0;whiteSpace=wrap;html=1;" parent="1" vertex="1">
          <mxGeometry x="580" y="170" width="160" height="34" as="geometry" />
        </mxCell>
        <mxCell id="ifuM4C0vmr6asOCNEHFr-7" value="" style="line;strokeWidth=1;fillColor=none;align=left;verticalAlign=middle;spacingTop=-1;spacingLeft=3;spacingRight=3;rotatable=0;labelPosition=right;points=[];portConstraint=eastwest;strokeColor=inherit;" parent="ifuM4C0vmr6asOCNEHFr-5" vertex="1">
          <mxGeometry y="26" width="160" height="8" as="geometry" />
        </mxCell>
        <mxCell id="ifuM4C0vmr6asOCNEHFr-8" value="Student" style="swimlane;fontStyle=1;align=center;verticalAlign=top;childLayout=stackLayout;horizontal=1;startSize=26;horizontalStack=0;resizeParent=1;resizeParentMax=0;resizeLast=0;collapsible=1;marginBottom=0;whiteSpace=wrap;html=1;" parent="1" vertex="1">
          <mxGeometry x="790" y="170" width="160" height="34" as="geometry" />
        </mxCell>
        <mxCell id="ifuM4C0vmr6asOCNEHFr-10" value="" style="line;strokeWidth=1;fillColor=none;align=left;verticalAlign=middle;spacingTop=-1;spacingLeft=3;spacingRight=3;rotatable=0;labelPosition=right;points=[];portConstraint=eastwest;strokeColor=inherit;" parent="ifuM4C0vmr6asOCNEHFr-8" vertex="1">
          <mxGeometry y="26" width="160" height="8" as="geometry" />
        </mxCell>
        <mxCell id="ifuM4C0vmr6asOCNEHFr-11" value="Course" style="swimlane;fontStyle=1;align=center;verticalAlign=top;childLayout=stackLayout;horizontal=1;startSize=26;horizontalStack=0;resizeParent=1;resizeParentMax=0;resizeLast=0;collapsible=1;marginBottom=0;whiteSpace=wrap;html=1;" parent="1" vertex="1">
          <mxGeometry x="265" y="496" width="160" height="138" as="geometry" />
        </mxCell>
        <mxCell id="ifuM4C0vmr6asOCNEHFr-12" value="+ name: String" style="text;strokeColor=none;fillColor=none;align=left;verticalAlign=top;spacingLeft=4;spacingRight=4;overflow=hidden;rotatable=0;points=[[0,0.5],[1,0.5]];portConstraint=eastwest;whiteSpace=wrap;html=1;" parent="ifuM4C0vmr6asOCNEHFr-11" vertex="1">
          <mxGeometry y="26" width="160" height="26" as="geometry" />
        </mxCell>
        <mxCell id="ifuM4C0vmr6asOCNEHFr-15" value="+ description: String" style="text;strokeColor=none;fillColor=none;align=left;verticalAlign=top;spacingLeft=4;spacingRight=4;overflow=hidden;rotatable=0;points=[[0,0.5],[1,0.5]];portConstraint=eastwest;whiteSpace=wrap;html=1;" parent="ifuM4C0vmr6asOCNEHFr-11" vertex="1">
          <mxGeometry y="52" width="160" height="26" as="geometry" />
        </mxCell>
        <mxCell id="ifuM4C0vmr6asOCNEHFr-18" value="+ hours: int" style="text;strokeColor=none;fillColor=none;align=left;verticalAlign=top;spacingLeft=4;spacingRight=4;overflow=hidden;rotatable=0;points=[[0,0.5],[1,0.5]];portConstraint=eastwest;whiteSpace=wrap;html=1;" parent="ifuM4C0vmr6asOCNEHFr-11" vertex="1">
          <mxGeometry y="78" width="160" height="26" as="geometry" />
        </mxCell>
        <mxCell id="ifuM4C0vmr6asOCNEHFr-19" value="+ archived: bool" style="text;strokeColor=none;fillColor=none;align=left;verticalAlign=top;spacingLeft=4;spacingRight=4;overflow=hidden;rotatable=0;points=[[0,0.5],[1,0.5]];portConstraint=eastwest;whiteSpace=wrap;html=1;" parent="ifuM4C0vmr6asOCNEHFr-11" vertex="1">
          <mxGeometry y="104" width="160" height="26" as="geometry" />
        </mxCell>
        <mxCell id="ifuM4C0vmr6asOCNEHFr-13" value="" style="line;strokeWidth=1;fillColor=none;align=left;verticalAlign=middle;spacingTop=-1;spacingLeft=3;spacingRight=3;rotatable=0;labelPosition=right;points=[];portConstraint=eastwest;strokeColor=inherit;" parent="ifuM4C0vmr6asOCNEHFr-11" vertex="1">
          <mxGeometry y="130" width="160" height="8" as="geometry" />
        </mxCell>
        <mxCell id="ifuM4C0vmr6asOCNEHFr-20" value="Edition" style="swimlane;fontStyle=1;align=center;verticalAlign=top;childLayout=stackLayout;horizontal=1;startSize=26;horizontalStack=0;resizeParent=1;resizeParentMax=0;resizeLast=0;collapsible=1;marginBottom=0;whiteSpace=wrap;html=1;" parent="1" vertex="1">
          <mxGeometry x="600" y="442" width="170" height="138" as="geometry" />
        </mxCell>
        <mxCell id="ifuM4C0vmr6asOCNEHFr-27" value="+ startDate: LocalDateTime" style="text;strokeColor=none;fillColor=none;align=left;verticalAlign=top;spacingLeft=4;spacingRight=4;overflow=hidden;rotatable=0;points=[[0,0.5],[1,0.5]];portConstraint=eastwest;whiteSpace=wrap;html=1;" parent="ifuM4C0vmr6asOCNEHFr-20" vertex="1">
          <mxGeometry y="26" width="170" height="26" as="geometry" />
        </mxCell>
        <mxCell id="ifuM4C0vmr6asOCNEHFr-28" value="+ endDate: LocalDateTime" style="text;strokeColor=none;fillColor=none;align=left;verticalAlign=top;spacingLeft=4;spacingRight=4;overflow=hidden;rotatable=0;points=[[0,0.5],[1,0.5]];portConstraint=eastwest;whiteSpace=wrap;html=1;" parent="ifuM4C0vmr6asOCNEHFr-20" vertex="1">
          <mxGeometry y="52" width="170" height="26" as="geometry" />
        </mxCell>
        <mxCell id="0vS6mUzBxVpkuesRZRcV-9" value="+ archived: bool" style="text;strokeColor=none;fillColor=none;align=left;verticalAlign=top;spacingLeft=4;spacingRight=4;overflow=hidden;rotatable=0;points=[[0,0.5],[1,0.5]];portConstraint=eastwest;whiteSpace=wrap;html=1;" parent="ifuM4C0vmr6asOCNEHFr-20" vertex="1">
          <mxGeometry y="78" width="170" height="26" as="geometry" />
        </mxCell>
        <mxCell id="ifuM4C0vmr6asOCNEHFr-26" value="" style="line;strokeWidth=1;fillColor=none;align=left;verticalAlign=middle;spacingTop=-1;spacingLeft=3;spacingRight=3;rotatable=0;labelPosition=right;points=[];portConstraint=eastwest;strokeColor=inherit;" parent="ifuM4C0vmr6asOCNEHFr-20" vertex="1">
          <mxGeometry y="104" width="170" height="8" as="geometry" />
        </mxCell>
        <mxCell id="0vS6mUzBxVpkuesRZRcV-7" value="+ nStudents(): int" style="text;strokeColor=none;fillColor=none;align=left;verticalAlign=top;spacingLeft=4;spacingRight=4;overflow=hidden;rotatable=0;points=[[0,0.5],[1,0.5]];portConstraint=eastwest;whiteSpace=wrap;html=1;" parent="ifuM4C0vmr6asOCNEHFr-20" vertex="1">
          <mxGeometry y="112" width="170" height="26" as="geometry" />
        </mxCell>
        <mxCell id="m8KKU55s9j08dm2d7Ejh-23" value="" style="endArrow=none;html=1;rounded=0;" parent="1" source="ifuM4C0vmr6asOCNEHFr-5" target="ifuM4C0vmr6asOCNEHFr-20" edge="1">
          <mxGeometry relative="1" as="geometry">
            <mxPoint x="620" y="320" as="sourcePoint" />
            <mxPoint x="780" y="320" as="targetPoint" />
          </mxGeometry>
        </mxCell>
        <mxCell id="m8KKU55s9j08dm2d7Ejh-24" value="0..*" style="resizable=0;html=1;whiteSpace=wrap;align=left;verticalAlign=bottom;" parent="m8KKU55s9j08dm2d7Ejh-23" connectable="0" vertex="1">
          <mxGeometry x="-1" relative="1" as="geometry">
            <mxPoint x="-25" y="20" as="offset" />
          </mxGeometry>
        </mxCell>
        <mxCell id="m8KKU55s9j08dm2d7Ejh-25" value="0..*" style="resizable=0;html=1;whiteSpace=wrap;align=right;verticalAlign=bottom;" parent="m8KKU55s9j08dm2d7Ejh-23" connectable="0" vertex="1">
          <mxGeometry x="1" relative="1" as="geometry">
            <mxPoint x="20" y="-12" as="offset" />
          </mxGeometry>
        </mxCell>
        <mxCell id="ifuM4C0vmr6asOCNEHFr-44" value="" style="endArrow=none;html=1;rounded=0;" parent="1" source="ifuM4C0vmr6asOCNEHFr-20" target="ifuM4C0vmr6asOCNEHFr-8" edge="1">
          <mxGeometry relative="1" as="geometry">
            <mxPoint x="695" y="270" as="sourcePoint" />
            <mxPoint x="695" y="478" as="targetPoint" />
          </mxGeometry>
        </mxCell>
        <mxCell id="ifuM4C0vmr6asOCNEHFr-45" value="0..*" style="resizable=0;html=1;whiteSpace=wrap;align=left;verticalAlign=bottom;" parent="ifuM4C0vmr6asOCNEHFr-44" connectable="0" vertex="1">
          <mxGeometry x="-1" relative="1" as="geometry">
            <mxPoint x="-12" y="-12" as="offset" />
          </mxGeometry>
        </mxCell>
        <mxCell id="ifuM4C0vmr6asOCNEHFr-46" value="0..*" style="resizable=0;html=1;whiteSpace=wrap;align=right;verticalAlign=bottom;" parent="ifuM4C0vmr6asOCNEHFr-44" connectable="0" vertex="1">
          <mxGeometry x="1" relative="1" as="geometry">
            <mxPoint x="-8" y="20" as="offset" />
          </mxGeometry>
        </mxCell>
        <mxCell id="ifuM4C0vmr6asOCNEHFr-48" value="Section" style="swimlane;fontStyle=1;align=center;verticalAlign=top;childLayout=stackLayout;horizontal=1;startSize=26;horizontalStack=0;resizeParent=1;resizeParentMax=0;resizeLast=0;collapsible=1;marginBottom=0;whiteSpace=wrap;html=1;" parent="1" vertex="1">
          <mxGeometry x="600" y="690" width="160" height="86" as="geometry" />
        </mxCell>
        <mxCell id="ifuM4C0vmr6asOCNEHFr-49" value="+ name: String" style="text;strokeColor=none;fillColor=none;align=left;verticalAlign=top;spacingLeft=4;spacingRight=4;overflow=hidden;rotatable=0;points=[[0,0.5],[1,0.5]];portConstraint=eastwest;whiteSpace=wrap;html=1;" parent="ifuM4C0vmr6asOCNEHFr-48" vertex="1">
          <mxGeometry y="26" width="160" height="26" as="geometry" />
        </mxCell>
        <mxCell id="ifuM4C0vmr6asOCNEHFr-55" value="+ published: bool" style="text;strokeColor=none;fillColor=none;align=left;verticalAlign=top;spacingLeft=4;spacingRight=4;overflow=hidden;rotatable=0;points=[[0,0.5],[1,0.5]];portConstraint=eastwest;whiteSpace=wrap;html=1;" parent="ifuM4C0vmr6asOCNEHFr-48" vertex="1">
          <mxGeometry y="52" width="160" height="26" as="geometry" />
        </mxCell>
        <mxCell id="ifuM4C0vmr6asOCNEHFr-50" value="" style="line;strokeWidth=1;fillColor=none;align=left;verticalAlign=middle;spacingTop=-1;spacingLeft=3;spacingRight=3;rotatable=0;labelPosition=right;points=[];portConstraint=eastwest;strokeColor=inherit;" parent="ifuM4C0vmr6asOCNEHFr-48" vertex="1">
          <mxGeometry y="78" width="160" height="8" as="geometry" />
        </mxCell>
        <mxCell id="0vS6mUzBxVpkuesRZRcV-1" value="" style="endArrow=none;html=1;rounded=0;" parent="1" source="ifuM4C0vmr6asOCNEHFr-11" target="ifuM4C0vmr6asOCNEHFr-20" edge="1">
          <mxGeometry relative="1" as="geometry">
            <mxPoint x="130" y="510" as="sourcePoint" />
            <mxPoint x="290" y="510" as="targetPoint" />
          </mxGeometry>
        </mxCell>
        <mxCell id="0vS6mUzBxVpkuesRZRcV-2" value="1" style="resizable=0;html=1;whiteSpace=wrap;align=left;verticalAlign=bottom;" parent="0vS6mUzBxVpkuesRZRcV-1" connectable="0" vertex="1">
          <mxGeometry x="-1" relative="1" as="geometry" />
        </mxCell>
        <mxCell id="0vS6mUzBxVpkuesRZRcV-3" value="0..*" style="resizable=0;html=1;whiteSpace=wrap;align=right;verticalAlign=bottom;" parent="0vS6mUzBxVpkuesRZRcV-1" connectable="0" vertex="1">
          <mxGeometry x="1" relative="1" as="geometry" />
        </mxCell>
        <mxCell id="0vS6mUzBxVpkuesRZRcV-13" value="User" style="swimlane;fontStyle=1;align=center;verticalAlign=top;childLayout=stackLayout;horizontal=1;startSize=26;horizontalStack=0;resizeParent=1;resizeParentMax=0;resizeLast=0;collapsible=1;marginBottom=0;whiteSpace=wrap;html=1;" parent="1" vertex="1">
          <mxGeometry x="1100" y="-264" width="160" height="268" as="geometry" />
        </mxCell>
        <mxCell id="0vS6mUzBxVpkuesRZRcV-110" value="+ email: String" style="text;strokeColor=none;fillColor=none;align=left;verticalAlign=top;spacingLeft=4;spacingRight=4;overflow=hidden;rotatable=0;points=[[0,0.5],[1,0.5]];portConstraint=eastwest;whiteSpace=wrap;html=1;" parent="0vS6mUzBxVpkuesRZRcV-13" vertex="1">
          <mxGeometry y="26" width="160" height="26" as="geometry" />
        </mxCell>
        <mxCell id="0vS6mUzBxVpkuesRZRcV-111" value="+ username: String" style="text;strokeColor=none;fillColor=none;align=left;verticalAlign=top;spacingLeft=4;spacingRight=4;overflow=hidden;rotatable=0;points=[[0,0.5],[1,0.5]];portConstraint=eastwest;whiteSpace=wrap;html=1;" parent="0vS6mUzBxVpkuesRZRcV-13" vertex="1">
          <mxGeometry y="52" width="160" height="26" as="geometry" />
        </mxCell>
        <mxCell id="0vS6mUzBxVpkuesRZRcV-18" value="+ name: String" style="text;strokeColor=none;fillColor=none;align=left;verticalAlign=top;spacingLeft=4;spacingRight=4;overflow=hidden;rotatable=0;points=[[0,0.5],[1,0.5]];portConstraint=eastwest;whiteSpace=wrap;html=1;" parent="0vS6mUzBxVpkuesRZRcV-13" vertex="1">
          <mxGeometry y="78" width="160" height="26" as="geometry" />
        </mxCell>
        <mxCell id="0vS6mUzBxVpkuesRZRcV-19" value="+ surname: String" style="text;strokeColor=none;fillColor=none;align=left;verticalAlign=top;spacingLeft=4;spacingRight=4;overflow=hidden;rotatable=0;points=[[0,0.5],[1,0.5]];portConstraint=eastwest;whiteSpace=wrap;html=1;" parent="0vS6mUzBxVpkuesRZRcV-13" vertex="1">
          <mxGeometry y="104" width="160" height="26" as="geometry" />
        </mxCell>
        <mxCell id="0vS6mUzBxVpkuesRZRcV-112" value="+ dni: String" style="text;strokeColor=none;fillColor=none;align=left;verticalAlign=top;spacingLeft=4;spacingRight=4;overflow=hidden;rotatable=0;points=[[0,0.5],[1,0.5]];portConstraint=eastwest;whiteSpace=wrap;html=1;" parent="0vS6mUzBxVpkuesRZRcV-13" vertex="1">
          <mxGeometry y="130" width="160" height="26" as="geometry" />
        </mxCell>
        <mxCell id="0vS6mUzBxVpkuesRZRcV-113" value="+ gender: Gender" style="text;strokeColor=none;fillColor=none;align=left;verticalAlign=top;spacingLeft=4;spacingRight=4;overflow=hidden;rotatable=0;points=[[0,0.5],[1,0.5]];portConstraint=eastwest;whiteSpace=wrap;html=1;" parent="0vS6mUzBxVpkuesRZRcV-13" vertex="1">
          <mxGeometry y="156" width="160" height="26" as="geometry" />
        </mxCell>
        <mxCell id="QaCVMLALTELmKfRH9sUe-1" value="+ telephone: String" style="text;strokeColor=none;fillColor=none;align=left;verticalAlign=top;spacingLeft=4;spacingRight=4;overflow=hidden;rotatable=0;points=[[0,0.5],[1,0.5]];portConstraint=eastwest;whiteSpace=wrap;html=1;" parent="0vS6mUzBxVpkuesRZRcV-13" vertex="1">
          <mxGeometry y="182" width="160" height="26" as="geometry" />
        </mxCell>
        <mxCell id="QaCVMLALTELmKfRH9sUe-2" value="+ direction: String" style="text;strokeColor=none;fillColor=none;align=left;verticalAlign=top;spacingLeft=4;spacingRight=4;overflow=hidden;rotatable=0;points=[[0,0.5],[1,0.5]];portConstraint=eastwest;whiteSpace=wrap;html=1;" parent="0vS6mUzBxVpkuesRZRcV-13" vertex="1">
          <mxGeometry y="208" width="160" height="26" as="geometry" />
        </mxCell>
        <mxCell id="QaCVMLALTELmKfRH9sUe-3" value="+ birthDate: LocalDateTime" style="text;strokeColor=none;fillColor=none;align=left;verticalAlign=top;spacingLeft=4;spacingRight=4;overflow=hidden;rotatable=0;points=[[0,0.5],[1,0.5]];portConstraint=eastwest;whiteSpace=wrap;html=1;" parent="0vS6mUzBxVpkuesRZRcV-13" vertex="1">
          <mxGeometry y="234" width="160" height="26" as="geometry" />
        </mxCell>
        <mxCell id="0vS6mUzBxVpkuesRZRcV-17" value="" style="line;strokeWidth=1;fillColor=none;align=left;verticalAlign=middle;spacingTop=-1;spacingLeft=3;spacingRight=3;rotatable=0;labelPosition=right;points=[];portConstraint=eastwest;strokeColor=inherit;" parent="0vS6mUzBxVpkuesRZRcV-13" vertex="1">
          <mxGeometry y="260" width="160" height="8" as="geometry" />
        </mxCell>
        <mxCell id="0vS6mUzBxVpkuesRZRcV-20" value="Extends" style="endArrow=block;endSize=16;endFill=0;html=1;rounded=0;" parent="1" source="ifuM4C0vmr6asOCNEHFr-5" target="0vS6mUzBxVpkuesRZRcV-13" edge="1">
          <mxGeometry width="160" relative="1" as="geometry">
            <mxPoint x="600" y="120" as="sourcePoint" />
            <mxPoint x="760" y="120" as="targetPoint" />
          </mxGeometry>
        </mxCell>
        <mxCell id="0vS6mUzBxVpkuesRZRcV-21" value="Extends" style="endArrow=block;endSize=16;endFill=0;html=1;rounded=0;" parent="1" source="ifuM4C0vmr6asOCNEHFr-8" target="0vS6mUzBxVpkuesRZRcV-13" edge="1">
          <mxGeometry x="-0.0008" width="160" relative="1" as="geometry">
            <mxPoint x="728" y="178" as="sourcePoint" />
            <mxPoint x="765" y="116" as="targetPoint" />
            <mxPoint as="offset" />
          </mxGeometry>
        </mxCell>
        <mxCell id="0vS6mUzBxVpkuesRZRcV-22" value="Resource" style="swimlane;fontStyle=1;align=center;verticalAlign=top;childLayout=stackLayout;horizontal=1;startSize=26;horizontalStack=0;resizeParent=1;resizeParentMax=0;resizeLast=0;collapsible=1;marginBottom=0;whiteSpace=wrap;html=1;" parent="1" vertex="1">
          <mxGeometry x="595" y="880" width="170" height="216" as="geometry" />
        </mxCell>
        <mxCell id="m8KKU55s9j08dm2d7Ejh-45" value="+ name: String" style="text;strokeColor=none;fillColor=none;align=left;verticalAlign=top;spacingLeft=4;spacingRight=4;overflow=hidden;rotatable=0;points=[[0,0.5],[1,0.5]];portConstraint=eastwest;whiteSpace=wrap;html=1;" parent="0vS6mUzBxVpkuesRZRcV-22" vertex="1">
          <mxGeometry y="26" width="170" height="26" as="geometry" />
        </mxCell>
        <mxCell id="0vS6mUzBxVpkuesRZRcV-39" value="+ extension: Extension" style="text;strokeColor=none;fillColor=none;align=left;verticalAlign=top;spacingLeft=4;spacingRight=4;overflow=hidden;rotatable=0;points=[[0,0.5],[1,0.5]];portConstraint=eastwest;whiteSpace=wrap;html=1;" parent="0vS6mUzBxVpkuesRZRcV-22" vertex="1">
          <mxGeometry y="52" width="170" height="26" as="geometry" />
        </mxCell>
        <mxCell id="m8KKU55s9j08dm2d7Ejh-46" value="+ description: String" style="text;strokeColor=none;fillColor=none;align=left;verticalAlign=top;spacingLeft=4;spacingRight=4;overflow=hidden;rotatable=0;points=[[0,0.5],[1,0.5]];portConstraint=eastwest;whiteSpace=wrap;html=1;" parent="0vS6mUzBxVpkuesRZRcV-22" vertex="1">
          <mxGeometry y="78" width="170" height="26" as="geometry" />
        </mxCell>
        <mxCell id="m8KKU55s9j08dm2d7Ejh-49" value="+ estimatedTime: int" style="text;strokeColor=none;fillColor=none;align=left;verticalAlign=top;spacingLeft=4;spacingRight=4;overflow=hidden;rotatable=0;points=[[0,0.5],[1,0.5]];portConstraint=eastwest;whiteSpace=wrap;html=1;" parent="0vS6mUzBxVpkuesRZRcV-22" vertex="1">
          <mxGeometry y="104" width="170" height="26" as="geometry" />
        </mxCell>
        <mxCell id="m8KKU55s9j08dm2d7Ejh-50" value="+ limitDate: LocalDateTime" style="text;strokeColor=none;fillColor=none;align=left;verticalAlign=top;spacingLeft=4;spacingRight=4;overflow=hidden;rotatable=0;points=[[0,0.5],[1,0.5]];portConstraint=eastwest;whiteSpace=wrap;html=1;" parent="0vS6mUzBxVpkuesRZRcV-22" vertex="1">
          <mxGeometry y="130" width="170" height="26" as="geometry" />
        </mxCell>
        <mxCell id="5UJ9u7RPF-xV1v8ptYlq-63" value="+ percentage: byte" style="text;strokeColor=none;fillColor=none;align=left;verticalAlign=top;spacingLeft=4;spacingRight=4;overflow=hidden;rotatable=0;points=[[0,0.5],[1,0.5]];portConstraint=eastwest;whiteSpace=wrap;html=1;" parent="0vS6mUzBxVpkuesRZRcV-22" vertex="1">
          <mxGeometry y="156" width="170" height="26" as="geometry" />
        </mxCell>
        <mxCell id="0vS6mUzBxVpkuesRZRcV-27" value="" style="line;strokeWidth=1;fillColor=none;align=left;verticalAlign=middle;spacingTop=-1;spacingLeft=3;spacingRight=3;rotatable=0;labelPosition=right;points=[];portConstraint=eastwest;strokeColor=inherit;" parent="0vS6mUzBxVpkuesRZRcV-22" vertex="1">
          <mxGeometry y="182" width="170" height="8" as="geometry" />
        </mxCell>
        <mxCell id="5UJ9u7RPF-xV1v8ptYlq-103" value="+ evaluable(): bool" style="text;strokeColor=none;fillColor=none;align=left;verticalAlign=top;spacingLeft=4;spacingRight=4;overflow=hidden;rotatable=0;points=[[0,0.5],[1,0.5]];portConstraint=eastwest;whiteSpace=wrap;html=1;" parent="0vS6mUzBxVpkuesRZRcV-22" vertex="1">
          <mxGeometry y="190" width="170" height="26" as="geometry" />
        </mxCell>
        <mxCell id="0vS6mUzBxVpkuesRZRcV-29" value="" style="endArrow=diamondThin;endFill=1;endSize=24;html=1;rounded=0;" parent="1" source="ifuM4C0vmr6asOCNEHFr-48" target="ifuM4C0vmr6asOCNEHFr-20" edge="1">
          <mxGeometry width="160" relative="1" as="geometry">
            <mxPoint x="920" y="534" as="sourcePoint" />
            <mxPoint x="683" y="606" as="targetPoint" />
          </mxGeometry>
        </mxCell>
        <mxCell id="0vS6mUzBxVpkuesRZRcV-30" value="1" style="text;html=1;align=center;verticalAlign=middle;resizable=0;points=[];autosize=1;strokeColor=none;fillColor=none;" parent="1" vertex="1">
          <mxGeometry x="680" y="620" width="30" height="30" as="geometry" />
        </mxCell>
        <mxCell id="0vS6mUzBxVpkuesRZRcV-31" value="0..*" style="text;html=1;align=center;verticalAlign=middle;resizable=0;points=[];autosize=1;strokeColor=none;fillColor=none;" parent="1" vertex="1">
          <mxGeometry x="680" y="660" width="40" height="30" as="geometry" />
        </mxCell>
        <mxCell id="0vS6mUzBxVpkuesRZRcV-32" value="" style="endArrow=diamondThin;endFill=1;endSize=24;html=1;rounded=0;" parent="1" source="0vS6mUzBxVpkuesRZRcV-22" target="ifuM4C0vmr6asOCNEHFr-48" edge="1">
          <mxGeometry width="160" relative="1" as="geometry">
            <mxPoint x="691" y="694" as="sourcePoint" />
            <mxPoint x="693" y="616" as="targetPoint" />
          </mxGeometry>
        </mxCell>
        <mxCell id="0vS6mUzBxVpkuesRZRcV-33" value="0..*" style="text;html=1;align=center;verticalAlign=middle;resizable=0;points=[];autosize=1;strokeColor=none;fillColor=none;" parent="1" vertex="1">
          <mxGeometry x="675" y="850" width="40" height="30" as="geometry" />
        </mxCell>
        <mxCell id="0vS6mUzBxVpkuesRZRcV-34" value="1" style="text;html=1;align=center;verticalAlign=middle;resizable=0;points=[];autosize=1;strokeColor=none;fillColor=none;" parent="1" vertex="1">
          <mxGeometry x="675" y="790" width="30" height="30" as="geometry" />
        </mxCell>
        <mxCell id="0vS6mUzBxVpkuesRZRcV-36" value="" style="endArrow=none;html=1;rounded=0;" parent="1" source="ifuM4C0vmr6asOCNEHFr-48" target="ifuM4C0vmr6asOCNEHFr-48" edge="1">
          <mxGeometry relative="1" as="geometry">
            <mxPoint x="480" y="710" as="sourcePoint" />
            <mxPoint x="550" y="790" as="targetPoint" />
            <Array as="points">
              <mxPoint x="560" y="700" />
              <mxPoint x="560" y="760" />
            </Array>
          </mxGeometry>
        </mxCell>
        <mxCell id="0vS6mUzBxVpkuesRZRcV-37" value="1" style="resizable=0;html=1;whiteSpace=wrap;align=left;verticalAlign=bottom;" parent="0vS6mUzBxVpkuesRZRcV-36" connectable="0" vertex="1">
          <mxGeometry x="-1" relative="1" as="geometry">
            <mxPoint x="-20" y="-7" as="offset" />
          </mxGeometry>
        </mxCell>
        <mxCell id="0vS6mUzBxVpkuesRZRcV-38" value="0..*" style="resizable=0;html=1;whiteSpace=wrap;align=right;verticalAlign=bottom;" parent="0vS6mUzBxVpkuesRZRcV-36" connectable="0" vertex="1">
          <mxGeometry x="1" relative="1" as="geometry" />
        </mxCell>
        <mxCell id="0vS6mUzBxVpkuesRZRcV-93" value="Event" style="swimlane;fontStyle=1;align=center;verticalAlign=top;childLayout=stackLayout;horizontal=1;startSize=26;horizontalStack=0;resizeParent=1;resizeParentMax=0;resizeLast=0;collapsible=1;marginBottom=0;whiteSpace=wrap;html=1;" parent="1" vertex="1">
          <mxGeometry x="240" y="730" width="170" height="242" as="geometry" />
        </mxCell>
        <mxCell id="0vS6mUzBxVpkuesRZRcV-94" value="+ name: String" style="text;strokeColor=none;fillColor=none;align=left;verticalAlign=top;spacingLeft=4;spacingRight=4;overflow=hidden;rotatable=0;points=[[0,0.5],[1,0.5]];portConstraint=eastwest;whiteSpace=wrap;html=1;" parent="0vS6mUzBxVpkuesRZRcV-93" vertex="1">
          <mxGeometry y="26" width="170" height="26" as="geometry" />
        </mxCell>
        <mxCell id="0vS6mUzBxVpkuesRZRcV-95" value="+ description: String" style="text;strokeColor=none;fillColor=none;align=left;verticalAlign=top;spacingLeft=4;spacingRight=4;overflow=hidden;rotatable=0;points=[[0,0.5],[1,0.5]];portConstraint=eastwest;whiteSpace=wrap;html=1;" parent="0vS6mUzBxVpkuesRZRcV-93" vertex="1">
          <mxGeometry y="52" width="170" height="26" as="geometry" />
        </mxCell>
        <mxCell id="0vS6mUzBxVpkuesRZRcV-100" value="+ startDate: LocalDateTime" style="text;strokeColor=none;fillColor=none;align=left;verticalAlign=top;spacingLeft=4;spacingRight=4;overflow=hidden;rotatable=0;points=[[0,0.5],[1,0.5]];portConstraint=eastwest;whiteSpace=wrap;html=1;" parent="0vS6mUzBxVpkuesRZRcV-93" vertex="1">
          <mxGeometry y="78" width="170" height="26" as="geometry" />
        </mxCell>
        <mxCell id="0vS6mUzBxVpkuesRZRcV-101" value="+ endDate: LocalDateTime" style="text;strokeColor=none;fillColor=none;align=left;verticalAlign=top;spacingLeft=4;spacingRight=4;overflow=hidden;rotatable=0;points=[[0,0.5],[1,0.5]];portConstraint=eastwest;whiteSpace=wrap;html=1;" parent="0vS6mUzBxVpkuesRZRcV-93" vertex="1">
          <mxGeometry y="104" width="170" height="26" as="geometry" />
        </mxCell>
        <mxCell id="0vS6mUzBxVpkuesRZRcV-102" value="+ url: String" style="text;strokeColor=none;fillColor=none;align=left;verticalAlign=top;spacingLeft=4;spacingRight=4;overflow=hidden;rotatable=0;points=[[0,0.5],[1,0.5]];portConstraint=eastwest;whiteSpace=wrap;html=1;" parent="0vS6mUzBxVpkuesRZRcV-93" vertex="1">
          <mxGeometry y="130" width="170" height="26" as="geometry" />
        </mxCell>
        <mxCell id="0vS6mUzBxVpkuesRZRcV-96" value="+ published: bool" style="text;strokeColor=none;fillColor=none;align=left;verticalAlign=top;spacingLeft=4;spacingRight=4;overflow=hidden;rotatable=0;points=[[0,0.5],[1,0.5]];portConstraint=eastwest;whiteSpace=wrap;html=1;" parent="0vS6mUzBxVpkuesRZRcV-93" vertex="1">
          <mxGeometry y="156" width="170" height="26" as="geometry" />
        </mxCell>
        <mxCell id="0vS6mUzBxVpkuesRZRcV-97" value="+ hours: int" style="text;strokeColor=none;fillColor=none;align=left;verticalAlign=top;spacingLeft=4;spacingRight=4;overflow=hidden;rotatable=0;points=[[0,0.5],[1,0.5]];portConstraint=eastwest;whiteSpace=wrap;html=1;" parent="0vS6mUzBxVpkuesRZRcV-93" vertex="1">
          <mxGeometry y="182" width="170" height="26" as="geometry" />
        </mxCell>
        <mxCell id="0vS6mUzBxVpkuesRZRcV-98" value="+ archived: bool" style="text;strokeColor=none;fillColor=none;align=left;verticalAlign=top;spacingLeft=4;spacingRight=4;overflow=hidden;rotatable=0;points=[[0,0.5],[1,0.5]];portConstraint=eastwest;whiteSpace=wrap;html=1;" parent="0vS6mUzBxVpkuesRZRcV-93" vertex="1">
          <mxGeometry y="208" width="170" height="26" as="geometry" />
        </mxCell>
        <mxCell id="0vS6mUzBxVpkuesRZRcV-99" value="" style="line;strokeWidth=1;fillColor=none;align=left;verticalAlign=middle;spacingTop=-1;spacingLeft=3;spacingRight=3;rotatable=0;labelPosition=right;points=[];portConstraint=eastwest;strokeColor=inherit;" parent="0vS6mUzBxVpkuesRZRcV-93" vertex="1">
          <mxGeometry y="234" width="170" height="8" as="geometry" />
        </mxCell>
        <mxCell id="0vS6mUzBxVpkuesRZRcV-104" value="" style="endArrow=none;html=1;rounded=0;" parent="1" source="ifuM4C0vmr6asOCNEHFr-20" target="0vS6mUzBxVpkuesRZRcV-93" edge="1">
          <mxGeometry relative="1" as="geometry">
            <mxPoint x="616" y="452" as="sourcePoint" />
            <mxPoint x="399" y="227" as="targetPoint" />
          </mxGeometry>
        </mxCell>
        <mxCell id="0vS6mUzBxVpkuesRZRcV-105" value="0..1" style="resizable=0;html=1;whiteSpace=wrap;align=left;verticalAlign=bottom;" parent="0vS6mUzBxVpkuesRZRcV-104" connectable="0" vertex="1">
          <mxGeometry x="-1" relative="1" as="geometry">
            <mxPoint x="-37" y="20" as="offset" />
          </mxGeometry>
        </mxCell>
        <mxCell id="0vS6mUzBxVpkuesRZRcV-106" value="0..*" style="resizable=0;html=1;whiteSpace=wrap;align=right;verticalAlign=bottom;" parent="0vS6mUzBxVpkuesRZRcV-104" connectable="0" vertex="1">
          <mxGeometry x="1" relative="1" as="geometry">
            <mxPoint x="30" y="-24" as="offset" />
          </mxGeometry>
        </mxCell>
        <mxCell id="QaCVMLALTELmKfRH9sUe-5" value="Admin" style="swimlane;fontStyle=1;align=center;verticalAlign=top;childLayout=stackLayout;horizontal=1;startSize=26;horizontalStack=0;resizeParent=1;resizeParentMax=0;resizeLast=0;collapsible=1;marginBottom=0;whiteSpace=wrap;html=1;" parent="1" vertex="1">
          <mxGeometry x="990" y="170" width="160" height="34" as="geometry" />
        </mxCell>
        <mxCell id="QaCVMLALTELmKfRH9sUe-6" value="" style="line;strokeWidth=1;fillColor=none;align=left;verticalAlign=middle;spacingTop=-1;spacingLeft=3;spacingRight=3;rotatable=0;labelPosition=right;points=[];portConstraint=eastwest;strokeColor=inherit;" parent="QaCVMLALTELmKfRH9sUe-5" vertex="1">
          <mxGeometry y="26" width="160" height="8" as="geometry" />
        </mxCell>
        <mxCell id="QaCVMLALTELmKfRH9sUe-7" value="Extends" style="endArrow=block;endSize=16;endFill=0;html=1;rounded=0;" parent="1" source="QaCVMLALTELmKfRH9sUe-5" target="0vS6mUzBxVpkuesRZRcV-13" edge="1">
          <mxGeometry x="-0.0037" width="160" relative="1" as="geometry">
            <mxPoint x="874" y="180" as="sourcePoint" />
            <mxPoint x="834" y="74" as="targetPoint" />
            <mxPoint as="offset" />
          </mxGeometry>
        </mxCell>
        <mxCell id="QaCVMLALTELmKfRH9sUe-8" value="IndividualChat" style="swimlane;fontStyle=1;align=center;verticalAlign=top;childLayout=stackLayout;horizontal=1;startSize=26;horizontalStack=0;resizeParent=1;resizeParentMax=0;resizeLast=0;collapsible=1;marginBottom=0;whiteSpace=wrap;html=1;" parent="1" vertex="1">
          <mxGeometry x="640" y="-140" width="190" height="34" as="geometry" />
        </mxCell>
        <mxCell id="QaCVMLALTELmKfRH9sUe-9" value="" style="line;strokeWidth=1;fillColor=none;align=left;verticalAlign=middle;spacingTop=-1;spacingLeft=3;spacingRight=3;rotatable=0;labelPosition=right;points=[];portConstraint=eastwest;strokeColor=inherit;" parent="QaCVMLALTELmKfRH9sUe-8" vertex="1">
          <mxGeometry y="26" width="190" height="8" as="geometry" />
        </mxCell>
        <mxCell id="QaCVMLALTELmKfRH9sUe-13" value="Message" style="swimlane;fontStyle=1;align=center;verticalAlign=top;childLayout=stackLayout;horizontal=1;startSize=26;horizontalStack=0;resizeParent=1;resizeParentMax=0;resizeLast=0;collapsible=1;marginBottom=0;whiteSpace=wrap;html=1;" parent="1" vertex="1">
          <mxGeometry x="790" y="-319" width="160" height="86" as="geometry" />
        </mxCell>
        <mxCell id="QaCVMLALTELmKfRH9sUe-28" value="+ message: String" style="text;strokeColor=none;fillColor=none;align=left;verticalAlign=top;spacingLeft=4;spacingRight=4;overflow=hidden;rotatable=0;points=[[0,0.5],[1,0.5]];portConstraint=eastwest;whiteSpace=wrap;html=1;" parent="QaCVMLALTELmKfRH9sUe-13" vertex="1">
          <mxGeometry y="26" width="160" height="26" as="geometry" />
        </mxCell>
        <mxCell id="QaCVMLALTELmKfRH9sUe-29" value="+ date: LocalDateTime" style="text;strokeColor=none;fillColor=none;align=left;verticalAlign=top;spacingLeft=4;spacingRight=4;overflow=hidden;rotatable=0;points=[[0,0.5],[1,0.5]];portConstraint=eastwest;whiteSpace=wrap;html=1;" parent="QaCVMLALTELmKfRH9sUe-13" vertex="1">
          <mxGeometry y="52" width="160" height="26" as="geometry" />
        </mxCell>
        <mxCell id="QaCVMLALTELmKfRH9sUe-14" value="" style="line;strokeWidth=1;fillColor=none;align=left;verticalAlign=middle;spacingTop=-1;spacingLeft=3;spacingRight=3;rotatable=0;labelPosition=right;points=[];portConstraint=eastwest;strokeColor=inherit;" parent="QaCVMLALTELmKfRH9sUe-13" vertex="1">
          <mxGeometry y="78" width="160" height="8" as="geometry" />
        </mxCell>
        <mxCell id="QaCVMLALTELmKfRH9sUe-38" value="" style="endArrow=none;html=1;rounded=0;" parent="1" source="0vS6mUzBxVpkuesRZRcV-13" target="QaCVMLALTELmKfRH9sUe-8" edge="1">
          <mxGeometry relative="1" as="geometry">
            <mxPoint x="627" y="176" as="sourcePoint" />
            <mxPoint x="467" y="-144" as="targetPoint" />
          </mxGeometry>
        </mxCell>
        <mxCell id="QaCVMLALTELmKfRH9sUe-39" value="2" style="resizable=0;html=1;whiteSpace=wrap;align=left;verticalAlign=bottom;" parent="QaCVMLALTELmKfRH9sUe-38" connectable="0" vertex="1">
          <mxGeometry x="-1" relative="1" as="geometry">
            <mxPoint x="-30" y="5" as="offset" />
          </mxGeometry>
        </mxCell>
        <mxCell id="QaCVMLALTELmKfRH9sUe-40" value="0..*" style="resizable=0;html=1;whiteSpace=wrap;align=right;verticalAlign=bottom;" parent="QaCVMLALTELmKfRH9sUe-38" connectable="0" vertex="1">
          <mxGeometry x="1" relative="1" as="geometry">
            <mxPoint x="37" y="-4" as="offset" />
          </mxGeometry>
        </mxCell>
        <mxCell id="QaCVMLALTELmKfRH9sUe-42" value="GrupalChat" style="swimlane;fontStyle=1;align=center;verticalAlign=top;childLayout=stackLayout;horizontal=1;startSize=26;horizontalStack=0;resizeParent=1;resizeParentMax=0;resizeLast=0;collapsible=1;marginBottom=0;whiteSpace=wrap;html=1;" parent="1" vertex="1">
          <mxGeometry x="350" width="190" height="34" as="geometry" />
        </mxCell>
        <mxCell id="QaCVMLALTELmKfRH9sUe-44" value="" style="line;strokeWidth=1;fillColor=none;align=left;verticalAlign=middle;spacingTop=-1;spacingLeft=3;spacingRight=3;rotatable=0;labelPosition=right;points=[];portConstraint=eastwest;strokeColor=inherit;" parent="QaCVMLALTELmKfRH9sUe-42" vertex="1">
          <mxGeometry y="26" width="190" height="8" as="geometry" />
        </mxCell>
        <mxCell id="QaCVMLALTELmKfRH9sUe-61" value="" style="endArrow=none;html=1;rounded=0;" parent="1" source="0vS6mUzBxVpkuesRZRcV-13" target="QaCVMLALTELmKfRH9sUe-42" edge="1">
          <mxGeometry relative="1" as="geometry">
            <mxPoint x="862" y="180" as="sourcePoint" />
            <mxPoint x="600" y="-68" as="targetPoint" />
          </mxGeometry>
        </mxCell>
        <mxCell id="QaCVMLALTELmKfRH9sUe-62" value="0..*" style="resizable=0;html=1;whiteSpace=wrap;align=left;verticalAlign=bottom;" parent="QaCVMLALTELmKfRH9sUe-61" connectable="0" vertex="1">
          <mxGeometry x="-1" relative="1" as="geometry">
            <mxPoint x="-60" y="34" as="offset" />
          </mxGeometry>
        </mxCell>
        <mxCell id="QaCVMLALTELmKfRH9sUe-63" value="0..*" style="resizable=0;html=1;whiteSpace=wrap;align=right;verticalAlign=bottom;" parent="QaCVMLALTELmKfRH9sUe-61" connectable="0" vertex="1">
          <mxGeometry x="1" relative="1" as="geometry">
            <mxPoint x="40" y="18" as="offset" />
          </mxGeometry>
        </mxCell>
        <mxCell id="5UJ9u7RPF-xV1v8ptYlq-1" value="ChatAccess" style="swimlane;fontStyle=1;align=center;verticalAlign=top;childLayout=stackLayout;horizontal=1;startSize=26;horizontalStack=0;resizeParent=1;resizeParentMax=0;resizeLast=0;collapsible=1;marginBottom=0;whiteSpace=wrap;html=1;" parent="1" vertex="1">
          <mxGeometry x="815" y="-470" width="190" height="60" as="geometry" />
        </mxCell>
        <mxCell id="5UJ9u7RPF-xV1v8ptYlq-13" value="+ date: LocalDateTime" style="text;strokeColor=none;fillColor=none;align=left;verticalAlign=top;spacingLeft=4;spacingRight=4;overflow=hidden;rotatable=0;points=[[0,0.5],[1,0.5]];portConstraint=eastwest;whiteSpace=wrap;html=1;" parent="5UJ9u7RPF-xV1v8ptYlq-1" vertex="1">
          <mxGeometry y="26" width="190" height="26" as="geometry" />
        </mxCell>
        <mxCell id="5UJ9u7RPF-xV1v8ptYlq-2" value="" style="line;strokeWidth=1;fillColor=none;align=left;verticalAlign=middle;spacingTop=-1;spacingLeft=3;spacingRight=3;rotatable=0;labelPosition=right;points=[];portConstraint=eastwest;strokeColor=inherit;" parent="5UJ9u7RPF-xV1v8ptYlq-1" vertex="1">
          <mxGeometry y="52" width="190" height="8" as="geometry" />
        </mxCell>
        <mxCell id="5UJ9u7RPF-xV1v8ptYlq-3" value="Chat" style="swimlane;fontStyle=1;align=center;verticalAlign=top;childLayout=stackLayout;horizontal=1;startSize=26;horizontalStack=0;resizeParent=1;resizeParentMax=0;resizeLast=0;collapsible=1;marginBottom=0;whiteSpace=wrap;html=1;" parent="1" vertex="1">
          <mxGeometry x="470" y="-280" width="190" height="34" as="geometry" />
        </mxCell>
        <mxCell id="5UJ9u7RPF-xV1v8ptYlq-4" value="" style="line;strokeWidth=1;fillColor=none;align=left;verticalAlign=middle;spacingTop=-1;spacingLeft=3;spacingRight=3;rotatable=0;labelPosition=right;points=[];portConstraint=eastwest;strokeColor=inherit;" parent="5UJ9u7RPF-xV1v8ptYlq-3" vertex="1">
          <mxGeometry y="26" width="190" height="8" as="geometry" />
        </mxCell>
        <mxCell id="5UJ9u7RPF-xV1v8ptYlq-5" value="Extends" style="endArrow=block;endSize=16;endFill=0;html=1;rounded=0;" parent="1" source="QaCVMLALTELmKfRH9sUe-42" target="5UJ9u7RPF-xV1v8ptYlq-3" edge="1">
          <mxGeometry width="160" relative="1" as="geometry">
            <mxPoint x="666" y="176" as="sourcePoint" />
            <mxPoint x="1110" y="-64" as="targetPoint" />
          </mxGeometry>
        </mxCell>
        <mxCell id="5UJ9u7RPF-xV1v8ptYlq-6" value="Extends" style="endArrow=block;endSize=16;endFill=0;html=1;rounded=0;" parent="1" source="QaCVMLALTELmKfRH9sUe-8" target="5UJ9u7RPF-xV1v8ptYlq-3" edge="1">
          <mxGeometry width="160" relative="1" as="geometry">
            <mxPoint x="441" y="-107" as="sourcePoint" />
            <mxPoint x="559" y="-236" as="targetPoint" />
          </mxGeometry>
        </mxCell>
        <mxCell id="5UJ9u7RPF-xV1v8ptYlq-7" value="" style="endArrow=none;html=1;rounded=0;" parent="1" source="5UJ9u7RPF-xV1v8ptYlq-3" target="5UJ9u7RPF-xV1v8ptYlq-1" edge="1">
          <mxGeometry relative="1" as="geometry">
            <mxPoint x="642" y="176" as="sourcePoint" />
            <mxPoint x="738" y="-73" as="targetPoint" />
          </mxGeometry>
        </mxCell>
        <mxCell id="5UJ9u7RPF-xV1v8ptYlq-8" value="1" style="resizable=0;html=1;whiteSpace=wrap;align=left;verticalAlign=bottom;" parent="5UJ9u7RPF-xV1v8ptYlq-7" connectable="0" vertex="1">
          <mxGeometry x="-1" relative="1" as="geometry">
            <mxPoint x="-2" y="-10" as="offset" />
          </mxGeometry>
        </mxCell>
        <mxCell id="5UJ9u7RPF-xV1v8ptYlq-9" value="0..*" style="resizable=0;html=1;whiteSpace=wrap;align=right;verticalAlign=bottom;" parent="5UJ9u7RPF-xV1v8ptYlq-7" connectable="0" vertex="1">
          <mxGeometry x="1" relative="1" as="geometry">
            <mxPoint x="-41" y="23" as="offset" />
          </mxGeometry>
        </mxCell>
        <mxCell id="5UJ9u7RPF-xV1v8ptYlq-10" value="" style="endArrow=none;html=1;rounded=0;" parent="1" source="0vS6mUzBxVpkuesRZRcV-13" target="5UJ9u7RPF-xV1v8ptYlq-1" edge="1">
          <mxGeometry relative="1" as="geometry">
            <mxPoint x="586" y="-270" as="sourcePoint" />
            <mxPoint x="674" y="-404" as="targetPoint" />
          </mxGeometry>
        </mxCell>
        <mxCell id="5UJ9u7RPF-xV1v8ptYlq-11" value="1" style="resizable=0;html=1;whiteSpace=wrap;align=left;verticalAlign=bottom;" parent="5UJ9u7RPF-xV1v8ptYlq-10" connectable="0" vertex="1">
          <mxGeometry x="-1" relative="1" as="geometry">
            <mxPoint x="-20" y="-16" as="offset" />
          </mxGeometry>
        </mxCell>
        <mxCell id="5UJ9u7RPF-xV1v8ptYlq-12" value="0..*" style="resizable=0;html=1;whiteSpace=wrap;align=right;verticalAlign=bottom;" parent="5UJ9u7RPF-xV1v8ptYlq-10" connectable="0" vertex="1">
          <mxGeometry x="1" relative="1" as="geometry">
            <mxPoint x="58" y="23" as="offset" />
          </mxGeometry>
        </mxCell>
        <mxCell id="5UJ9u7RPF-xV1v8ptYlq-15" value="" style="endArrow=none;html=1;rounded=0;" parent="1" source="ifuM4C0vmr6asOCNEHFr-20" target="QaCVMLALTELmKfRH9sUe-42" edge="1">
          <mxGeometry relative="1" as="geometry">
            <mxPoint x="622" y="176" as="sourcePoint" />
            <mxPoint x="438" y="-73" as="targetPoint" />
          </mxGeometry>
        </mxCell>
        <mxCell id="5UJ9u7RPF-xV1v8ptYlq-16" value="1" style="resizable=0;html=1;whiteSpace=wrap;align=left;verticalAlign=bottom;" parent="5UJ9u7RPF-xV1v8ptYlq-15" connectable="0" vertex="1">
          <mxGeometry x="-1" relative="1" as="geometry">
            <mxPoint x="-11" y="-22" as="offset" />
          </mxGeometry>
        </mxCell>
        <mxCell id="5UJ9u7RPF-xV1v8ptYlq-17" value="0..*" style="resizable=0;html=1;whiteSpace=wrap;align=right;verticalAlign=bottom;" parent="5UJ9u7RPF-xV1v8ptYlq-15" connectable="0" vertex="1">
          <mxGeometry x="1" relative="1" as="geometry">
            <mxPoint x="37" y="26" as="offset" />
          </mxGeometry>
        </mxCell>
        <mxCell id="5UJ9u7RPF-xV1v8ptYlq-18" value="" style="endArrow=none;html=1;rounded=0;" parent="1" source="0vS6mUzBxVpkuesRZRcV-13" target="QaCVMLALTELmKfRH9sUe-13" edge="1">
          <mxGeometry relative="1" as="geometry">
            <mxPoint x="1110" y="-203" as="sourcePoint" />
            <mxPoint x="945" y="-400" as="targetPoint" />
          </mxGeometry>
        </mxCell>
        <mxCell id="5UJ9u7RPF-xV1v8ptYlq-19" value="1" style="resizable=0;html=1;whiteSpace=wrap;align=left;verticalAlign=bottom;" parent="5UJ9u7RPF-xV1v8ptYlq-18" connectable="0" vertex="1">
          <mxGeometry x="-1" relative="1" as="geometry">
            <mxPoint x="-20" y="-12" as="offset" />
          </mxGeometry>
        </mxCell>
        <mxCell id="5UJ9u7RPF-xV1v8ptYlq-20" value="0..*" style="resizable=0;html=1;whiteSpace=wrap;align=right;verticalAlign=bottom;" parent="5UJ9u7RPF-xV1v8ptYlq-18" connectable="0" vertex="1">
          <mxGeometry x="1" relative="1" as="geometry">
            <mxPoint x="30" y="5" as="offset" />
          </mxGeometry>
        </mxCell>
        <mxCell id="5UJ9u7RPF-xV1v8ptYlq-21" value="" style="endArrow=none;html=1;rounded=0;" parent="1" source="5UJ9u7RPF-xV1v8ptYlq-3" target="QaCVMLALTELmKfRH9sUe-13" edge="1">
          <mxGeometry relative="1" as="geometry">
            <mxPoint x="1110" y="-148" as="sourcePoint" />
            <mxPoint x="960" y="-225" as="targetPoint" />
          </mxGeometry>
        </mxCell>
        <mxCell id="5UJ9u7RPF-xV1v8ptYlq-22" value="1" style="resizable=0;html=1;whiteSpace=wrap;align=left;verticalAlign=bottom;" parent="5UJ9u7RPF-xV1v8ptYlq-21" connectable="0" vertex="1">
          <mxGeometry x="-1" relative="1" as="geometry">
            <mxPoint x="10" y="-3" as="offset" />
          </mxGeometry>
        </mxCell>
        <mxCell id="5UJ9u7RPF-xV1v8ptYlq-23" value="0..*" style="resizable=0;html=1;whiteSpace=wrap;align=right;verticalAlign=bottom;" parent="5UJ9u7RPF-xV1v8ptYlq-21" connectable="0" vertex="1">
          <mxGeometry x="1" relative="1" as="geometry">
            <mxPoint y="3" as="offset" />
          </mxGeometry>
        </mxCell>
        <mxCell id="5UJ9u7RPF-xV1v8ptYlq-39" value="" style="endArrow=none;html=1;rounded=0;" parent="1" source="5UJ9u7RPF-xV1v8ptYlq-47" target="ifuM4C0vmr6asOCNEHFr-8" edge="1">
          <mxGeometry relative="1" as="geometry">
            <mxPoint x="1029.1104294478528" y="320" as="sourcePoint" />
            <mxPoint x="871" y="214" as="targetPoint" />
          </mxGeometry>
        </mxCell>
        <mxCell id="5UJ9u7RPF-xV1v8ptYlq-40" value="1" style="resizable=0;html=1;whiteSpace=wrap;align=left;verticalAlign=bottom;" parent="5UJ9u7RPF-xV1v8ptYlq-39" connectable="0" vertex="1">
          <mxGeometry x="-1" relative="1" as="geometry">
            <mxPoint x="-137" y="-332" as="offset" />
          </mxGeometry>
        </mxCell>
        <mxCell id="5UJ9u7RPF-xV1v8ptYlq-41" value="0..*" style="resizable=0;html=1;whiteSpace=wrap;align=right;verticalAlign=bottom;" parent="5UJ9u7RPF-xV1v8ptYlq-39" connectable="0" vertex="1">
          <mxGeometry x="1" relative="1" as="geometry">
            <mxPoint x="173" y="346" as="offset" />
          </mxGeometry>
        </mxCell>
        <mxCell id="5UJ9u7RPF-xV1v8ptYlq-42" value="" style="endArrow=none;html=1;rounded=0;" parent="1" source="5UJ9u7RPF-xV1v8ptYlq-47" target="ifuM4C0vmr6asOCNEHFr-20" edge="1">
          <mxGeometry relative="1" as="geometry">
            <mxPoint x="960" y="595.1714285714288" as="sourcePoint" />
            <mxPoint x="780" y="546.8285714285716" as="targetPoint" />
          </mxGeometry>
        </mxCell>
        <mxCell id="5UJ9u7RPF-xV1v8ptYlq-43" value="0..*" style="resizable=0;html=1;whiteSpace=wrap;align=left;verticalAlign=bottom;" parent="5UJ9u7RPF-xV1v8ptYlq-42" connectable="0" vertex="1">
          <mxGeometry x="-1" relative="1" as="geometry">
            <mxPoint x="-20" y="-5" as="offset" />
          </mxGeometry>
        </mxCell>
        <mxCell id="5UJ9u7RPF-xV1v8ptYlq-47" value="Grade" style="swimlane;fontStyle=1;align=center;verticalAlign=top;childLayout=stackLayout;horizontal=1;startSize=26;horizontalStack=0;resizeParent=1;resizeParentMax=0;resizeLast=0;collapsible=1;marginBottom=0;whiteSpace=wrap;html=1;" parent="1" vertex="1">
          <mxGeometry x="960" y="552" width="170" height="86" as="geometry" />
        </mxCell>
        <mxCell id="5UJ9u7RPF-xV1v8ptYlq-70" value="+ testName: String" style="text;strokeColor=none;fillColor=none;align=left;verticalAlign=top;spacingLeft=4;spacingRight=4;overflow=hidden;rotatable=0;points=[[0,0.5],[1,0.5]];portConstraint=eastwest;whiteSpace=wrap;html=1;" parent="5UJ9u7RPF-xV1v8ptYlq-47" vertex="1">
          <mxGeometry y="26" width="170" height="26" as="geometry" />
        </mxCell>
        <mxCell id="5UJ9u7RPF-xV1v8ptYlq-50" value="+ grade: float" style="text;strokeColor=none;fillColor=none;align=left;verticalAlign=top;spacingLeft=4;spacingRight=4;overflow=hidden;rotatable=0;points=[[0,0.5],[1,0.5]];portConstraint=eastwest;whiteSpace=wrap;html=1;" parent="5UJ9u7RPF-xV1v8ptYlq-47" vertex="1">
          <mxGeometry y="52" width="170" height="26" as="geometry" />
        </mxCell>
        <mxCell id="5UJ9u7RPF-xV1v8ptYlq-48" value="" style="line;strokeWidth=1;fillColor=none;align=left;verticalAlign=middle;spacingTop=-1;spacingLeft=3;spacingRight=3;rotatable=0;labelPosition=right;points=[];portConstraint=eastwest;strokeColor=inherit;" parent="5UJ9u7RPF-xV1v8ptYlq-47" vertex="1">
          <mxGeometry y="78" width="170" height="8" as="geometry" />
        </mxCell>
        <mxCell id="5UJ9u7RPF-xV1v8ptYlq-67" value="" style="endArrow=none;html=1;rounded=0;" parent="1" source="5UJ9u7RPF-xV1v8ptYlq-47" target="0vS6mUzBxVpkuesRZRcV-22" edge="1">
          <mxGeometry relative="1" as="geometry">
            <mxPoint x="927" y="390" as="sourcePoint" />
            <mxPoint x="1063.5174418604652" y="945" as="targetPoint" />
          </mxGeometry>
        </mxCell>
        <mxCell id="5UJ9u7RPF-xV1v8ptYlq-68" value="0..*" style="resizable=0;html=1;whiteSpace=wrap;align=left;verticalAlign=bottom;" parent="5UJ9u7RPF-xV1v8ptYlq-67" connectable="0" vertex="1">
          <mxGeometry x="-1" relative="1" as="geometry">
            <mxPoint x="-53" y="30" as="offset" />
          </mxGeometry>
        </mxCell>
        <mxCell id="5UJ9u7RPF-xV1v8ptYlq-69" value="0..1" style="resizable=0;html=1;whiteSpace=wrap;align=right;verticalAlign=bottom;" parent="5UJ9u7RPF-xV1v8ptYlq-67" connectable="0" vertex="1">
          <mxGeometry x="1" relative="1" as="geometry">
            <mxPoint x="25" y="-29" as="offset" />
          </mxGeometry>
        </mxCell>
        <mxCell id="5UJ9u7RPF-xV1v8ptYlq-108" value="1" style="text;html=1;align=center;verticalAlign=middle;resizable=0;points=[];autosize=1;strokeColor=none;fillColor=none;" parent="1" vertex="1">
          <mxGeometry x="770" y="500" width="30" height="30" as="geometry" />
        </mxCell>
      </root>
    </mxGraphModel>
  </diagram>
</mxfile>
